# Blender 5.2.0 LTS
# www.blender.org
mtllib footer example for the three leftmost keys .mtl
o K00_W0_F
v -188.785568 1.773585 47.457939
v -159.046814 3.773585 47.457939
v -188.785568 3.773585 47.457939
v -159.046814 1.773585 47.457939
v -188.785568 -3.137525 -16.233271
v -188.785568 1.234831 -32.542061
v -188.785568 -3.137525 -32.542061
v -188.785568 3.773585 -32.542061
v -188.785568 -1.193643 -16.233271
v -188.785568 -1.193643 -11.233286
v -188.785568 -1.193643 -10.233286
v -188.785568 -1.193643 -8.233377
v -188.785568 -1.193643 -7.233377
v -188.785568 -1.193643 -2.233377
v -188.785568 -3.137525 38.957939
v -188.785568 -3.137525 -2.233377
v -188.785568 -10.773596 46.457939
v -188.785568 -10.773538 41.457939
v -188.785568 1.773585 46.457939
v -159.046814 1.773585 46.457939
v -159.046814 -10.773596 46.457939
v -159.046814 -3.137525 38.957939
v -159.046814 -10.773538 41.457939
v -159.046814 -3.137525 16.457937
v -159.046814 3.773585 16.457937
v -169.093628 -3.137525 -32.542061
v -169.093628 1.234831 -32.542061
v -169.093628 -3.137525 16.457937
v -169.093628 3.773585 16.457937
v -170.093628 -1.193643 -16.233271
v -170.093628 -3.137525 -31.542063
v -170.093628 -3.137525 -16.233271
v -170.093628 2.773585 -11.233286
v -170.093628 -1.193643 -11.233286
v -170.093628 2.773585 -16.233271
v -170.093628 2.773585 -31.542063
v -169.093628 3.773585 -32.542061
v -187.785568 2.773585 45.457939
v -160.046814 -10.773596 45.457939
v -187.785568 -10.773596 45.457939
v -160.046814 2.773585 45.457939
v -187.785568 2.773585 46.457939
v -160.046814 2.773585 46.457939
v -160.046814 -3.137525 38.957939
v -160.046814 2.773585 17.457937
v -160.046814 -3.137525 17.457937
v -160.046814 -10.773538 41.457939
v -187.785568 -3.137525 -31.542063
v -187.785568 2.773585 -31.542063
v -170.093628 2.773585 17.457937
v -170.093628 -3.137525 17.457937
v -187.785568 -10.773538 41.457939
v -187.785568 -3.137525 38.957939
v -169.093628 -3.137525 -16.233271
v -169.093628 -3.137525 -2.233377
v -170.093628 -3.137525 -2.233377
v -187.785568 -3.137525 -2.233377
v -187.785568 -3.137525 -16.233271
v -187.785568 -1.193643 -2.233377
v -169.093628 -1.193643 -16.233271
v -169.093628 -1.193643 -2.233377
v -170.093628 -1.193643 -2.233377
v -169.093628 -1.193643 -7.233377
v -170.093628 -1.193643 -7.233377
v -187.785568 -1.193643 -16.233271
v -187.785568 -1.193643 -11.233286
v -178.439651 -1.193639 -2.233377
v -179.439529 2.773588 -2.233377
v -179.439529 -1.193639 -2.233377
v -178.439651 2.773588 -2.233377
v -187.785568 2.773585 -16.233271
v -187.785568 2.773585 -11.233286
v -187.785568 -1.193643 -7.233377
v -187.785568 -1.193643 -10.233286
v -187.785568 -1.193643 -8.233377
v -169.093628 -1.193643 -11.233286
v -170.093628 -1.193643 -10.233286
v -187.785568 2.773585 -10.233286
v -170.093628 2.773585 -10.233286
v -170.093628 -1.193643 -8.233377
v -169.093628 -1.193643 -10.233286
v -169.093628 -1.193643 -8.233377
v -179.439529 -1.193639 -11.233286
v -178.439651 -1.193639 -16.233271
v -179.439529 -1.193639 -16.233271
v -178.439651 -1.193639 -11.233286
v -179.439529 2.773585 -16.233271
v -179.439529 2.773585 -11.233286
v -178.439651 2.773585 -16.233271
v -178.439651 2.773585 -11.233286
v -187.785568 2.773585 -8.233377
v -170.093628 2.773585 -8.233377
v -178.439651 -1.193639 -7.233377
v -179.439529 -1.193639 -7.233377
v -179.439529 2.773588 -7.233377
v -187.785568 2.773588 -2.233377
v -187.785568 2.773588 -7.233377
v -170.093628 2.773588 -7.233377
v -178.439651 2.773588 -7.233377
v -170.093628 2.773588 -2.233377
v -188.785568 2.234824 -37.610836
v -169.093628 2.234824 -32.542080
v -169.093628 2.234824 -37.610836
v -188.785568 2.234824 -32.542080
v -169.093628 1.234831 -37.610836
v -188.785568 1.234831 -37.610836
v -184.190262 -5.815354 -8.231434
v -173.790237 -5.815354 -9.233401
v -184.190262 -5.815354 -9.233401
v -173.790237 -5.915354 -9.233401
v -184.190262 -5.915354 -8.231434
v -184.190262 -5.915354 -9.233401
v -173.790237 -5.815354 -8.231434
v -173.790237 -5.915354 -8.231434
v -178.490234 -5.815354 -8.231434
v -179.490234 -5.815354 -5.733256
v -178.490234 -5.815354 -5.733256
v -179.490234 -5.915354 -5.733256
v -178.490234 -5.915354 -8.231434
v -178.490234 -5.915354 -5.733256
v -179.490234 -5.815354 -8.231434
v -179.490234 -5.915354 -8.231434
v -184.190262 -5.815354 -11.233294
v -179.490234 -5.815354 -12.233311
v -184.190262 -5.815354 -12.233294
v -179.490234 -5.915354 -12.233311
v -184.190262 -5.915354 -11.233294
v -184.190262 -5.915354 -12.233294
v -178.490234 -5.815354 -14.733302
v -179.490234 -5.815354 -14.733302
v -178.490234 -5.915354 -14.733302
v -179.490234 -5.915354 -14.733302
v -178.490234 -5.815354 -12.233311
v -178.490234 -5.915354 -12.233311
v -173.790237 -5.815354 -12.233294
v -173.790237 -5.915354 -12.233294
v -173.790237 -5.815354 -11.233294
v -173.790237 -5.915354 -11.233294
v -184.190262 -1.193639 -10.233286
v -184.190262 -1.193639 -11.233286
v -179.490234 -1.193639 -11.233302
v -179.490234 -1.193639 -13.733294
v -178.490234 -1.193639 -13.733294
v -178.490234 -1.193639 -11.233302
v -173.790237 -1.193639 -11.233286
v -173.790237 -1.193639 -10.233286
v -184.139557 -1.193639 -7.233377
v -184.139557 -1.193639 -8.235345
v -173.739532 -1.193639 -8.235345
v -173.739532 -1.193639 -7.233377
v -178.439529 -1.193639 -7.233377
v -178.439529 -1.193639 -4.735200
v -179.439529 -1.193639 -4.735200
v -179.439529 -1.193639 -7.233377
v -184.139557 -1.293639 -7.233377
v -179.439529 -1.293639 -7.233377
vn -0.0000 -0.0000 1.0000
vn -1.0000 -0.0000 -0.0000
vn -0.0000 -1.0000 -0.0000
vn 1.0000 -0.0000 -0.0000
vn -0.0000 -0.0000 -1.0000
vn -0.0000 1.0000 -0.0000
vn -0.0000 -0.3111 -0.9504
vn -0.6215 -0.0000 0.7834
vn 0.6215 -0.0000 -0.7834
vn 0.9987 -0.0000 -0.0510
vn -0.0000 0.2111 -0.9775
vn -0.0000 -0.2111 0.9775
vn -0.9987 -0.0000 0.0507
vn -0.0000 -0.2115 0.9774
vn -0.0000 0.2115 -0.9774
vn 0.9999 -0.0110 -0.0000
vn -0.9999 0.0110 -0.0000
s 0
usemtl Xenachord_white
f 1//1 2//1 3//1
f 1//1 4//1 2//1
f 5//2 6//2 7//2
f 5//2 8//2 6//2
f 9//2 8//2 5//2
f 10//2 8//2 9//2
f 11//2 8//2 10//2
f 12//2 8//2 11//2
f 13//2 8//2 12//2
f 14//2 8//2 13//2
f 15//2 14//2 16//2
f 15//2 8//2 14//2
f 17//2 15//2 18//2
f 19//2 15//2 17//2
f 19//2 8//2 15//2
f 1//2 8//2 19//2
f 3//2 8//2 1//2
f 17//1 20//1 19//1
f 17//1 21//1 20//1
f 19//3 4//3 1//3
f 20//3 4//3 19//3
f 22//4 21//4 23//4
f 22//4 20//4 21//4
f 24//4 20//4 22//4
f 20//4 2//4 4//4
f 24//4 2//4 20//4
f 24//4 25//4 2//4
f 26//5 6//5 27//5
f 7//5 6//5 26//5
f 28//5 25//5 24//5
f 29//5 25//5 28//5
f 30//2 31//2 32//2
f 33//2 30//2 34//2
f 33//2 31//2 30//2
f 35//2 31//2 33//2
f 36//2 31//2 35//2
f 2//6 8//6 3//6
f 8//6 29//6 37//6
f 2//6 29//6 8//6
f 2//6 25//6 29//6
f 38//5 39//5 40//5
f 41//5 39//5 38//5
f 42//6 41//6 38//6
f 42//6 43//6 41//6
f 44//2 45//2 46//2
f 39//2 44//2 47//2
f 41//2 44//2 39//2
f 41//2 45//2 44//2
f 43//2 45//2 41//2
f 36//1 48//1 31//1
f 36//1 49//1 48//1
f 46//1 50//1 51//1
f 46//1 45//1 50//1
f 31//3 7//3 26//3
f 48//3 7//3 31//3
f 40//3 21//3 17//3
f 39//3 21//3 40//3
f 39//3 23//3 21//3
f 47//3 23//3 39//3
f 52//3 17//3 18//3
f 40//3 17//3 52//3
f 47//7 22//7 23//7
f 44//7 22//7 47//7
f 53//7 18//7 15//7
f 52//7 18//7 53//7
f 44//3 24//3 22//3
f 46//3 24//3 44//3
f 32//3 26//3 54//3
f 31//3 26//3 32//3
f 46//3 28//3 24//3
f 51//3 28//3 46//3
f 51//3 55//3 28//3
f 56//3 55//3 51//3
f 57//3 15//3 16//3
f 53//3 15//3 57//3
f 48//3 5//3 7//3
f 58//3 5//3 48//3
f 59//5 16//5 14//5
f 57//5 16//5 59//5
f 32//1 60//1 30//1
f 32//1 54//1 60//1
f 56//5 61//5 55//5
f 62//5 61//5 56//5
f 62//3 63//3 61//3
f 64//3 63//3 62//3
f 65//1 5//1 58//1
f 65//1 9//1 5//1
f 65//3 10//3 9//3
f 66//3 10//3 65//3
f 67//1 68//1 69//1
f 67//1 70//1 68//1
f 66//4 71//4 72//4
f 66//4 49//4 71//4
f 49//4 58//4 48//4
f 49//4 65//4 58//4
f 66//4 65//4 49//4
f 73//3 14//3 13//3
f 59//3 14//3 73//3
f 74//3 12//3 11//3
f 75//3 12//3 74//3
f 34//3 60//3 76//3
f 30//3 60//3 34//3
f 77//1 78//1 74//1
f 77//1 79//1 78//1
f 80//3 81//3 82//3
f 77//3 81//3 80//3
f 77//6 11//6 81//6
f 74//6 11//6 77//6
f 72//3 87//3 88//3
f 71//3 87//3 72//3
f 49//3 87//3 71//3
f 49//3 89//3 87//3
f 36//3 89//3 49//3
f 35//3 89//3 36//3
f 33//3 89//3 35//3
f 90//3 89//3 33//3
f 78//4 75//4 74//4
f 78//4 91//4 75//4
f 80//2 79//2 77//2
f 92//2 79//2 80//2
f 93//3 67//3 69//3 94//3
f 13//6 63//6 82//6 80//6 75//6 12//6
f 64//6 13//6 63//6
f 93//1 13//1 64//1
f 94//1 13//1 93//1
f 73//5 13//5 94//5
f 79//3 91//3 78//3
f 92//3 91//3 79//3
f 42//3 45//3 43//3
f 95//3 96//3 97//3
f 95//3 42//3 96//3
f 68//3 42//3 95//3
f 70//3 42//3 68//3
f 98//3 70//3 99//3
f 98//3 42//3 70//3
f 100//3 42//3 98//3
f 50//3 42//3 100//3
f 50//3 45//3 42//3
f 83//5 72//5 88//5
f 66//5 72//5 83//5
f 93//4 70//4 67//4
f 93//4 99//4 70//4
f 84//5 87//5 89//5
f 85//5 87//5 84//5
f 34//5 90//5 33//5
f 86//5 90//5 34//5
f 94//1 97//1 73//1
f 94//1 95//1 97//1
f 84//4 90//4 86//4
f 84//4 89//4 90//4
f 64//1 99//1 93//1
f 64//1 98//1 99//1
f 85//2 88//2 87//2
f 83//2 88//2 85//2
f 80//5 91//5 92//5
f 75//5 91//5 80//5
f 94//2 68//2 95//2
f 69//2 68//2 94//2
f 61//4 28//4 55//4
f 61//4 29//4 28//4
f 63//4 29//4 61//4
f 82//4 29//4 63//4
f 81//4 29//4 82//4
f 76//4 29//4 81//4
f 60//4 29//4 76//4
f 60//4 37//4 29//4
f 54//4 37//4 60//4
f 54//4 27//4 37//4
f 54//4 26//4 27//4
f 51//2 62//2 56//2
f 50//2 62//2 51//2
f 100//2 62//2 50//2
f 98//2 62//2 100//2
f 64//2 62//2 98//2
f 52//4 38//4 40//4
f 38//6 96//6 42//6
f 38//4 97//4 96//4
f 38//4 73//4 97//4
f 38//4 59//4 73//4
f 38//4 57//4 59//4
f 38//4 53//4 57//4
f 52//4 53//4 38//4
f 101//6 102//6 103//6
f 101//6 104//6 102//6
f 105//5 101//5 103//5
f 106//5 101//5 105//5
f 106//3 27//3 6//3
f 105//3 27//3 106//3
f 104//8 6//8 8//8
f 101//2 6//2 104//2
f 106//2 6//2 101//2
f 102//4 105//4 103//4
f 102//4 27//4 105//4
f 102//9 37//9 27//9
f 102//5 8//5 37//5
f 104//5 8//5 102//5
f 11//3 10//3 66//3 83//3 86//3 34//3 76//3 81//3
f 83//3 85//3 84//3 86//3
usemtl Xenachord_feet
f 122//10 121//10 154//10 156//10
f 110//3 111//3 112//3
f 115//11 121//11 154//11 151//11
f 114//3 111//3 110//3
f 108//11 109//11 148//11 149//11
f 118//3 119//3 120//3
f 116//12 117//12 152//12 153//12
f 122//3 119//3 118//3
f 107//6 115//6 113//6
f 119//6 111//6 114//6
f 107//6 121//6 115//6
f 122//6 111//6 119//6
f 111//2 109//2 112//2
f 111//2 107//2 109//2
f 112//5 108//5 110//5
f 112//5 109//5 108//5
f 110//4 113//4 114//4
f 110//4 108//4 113//4
f 114//1 115//1 119//1
f 114//1 113//1 115//1
f 119//4 117//4 120//4
f 119//4 115//4 117//4
f 120//1 116//1 118//1
f 120//1 117//1 116//1
f 118//2 121//2 122//2
f 118//2 116//2 121//2
f 111//12 122//12 156//12 155//12
f 107//13 111//13 155//13 147//13
f 123//14 137//14 146//14 139//14
f 126//3 127//3 128//3
f 124//15 125//15 140//15 141//15
f 131//3 126//3 132//3
f 133//4 129//4 143//4 144//4
f 134//3 126//3 131//3
f 130//2 124//2 141//2 142//2
f 134//3 127//3 126//3
f 129//15 130//15 142//15 143//15
f 136//3 127//3 134//3
f 135//15 133//15 144//15 145//15
f 138//3 127//3 136//3
f 127//2 125//2 128//2
f 127//2 123//2 125//2
f 128//5 124//5 126//5
f 128//5 125//5 124//5
f 126//2 130//2 132//2
f 126//2 124//2 130//2
f 132//5 129//5 131//5
f 132//5 130//5 129//5
f 131//4 133//4 134//4
f 131//4 129//4 133//4
f 134//5 135//5 136//5
f 134//5 133//5 135//5
f 136//4 137//4 138//4
f 136//4 135//4 137//4
f 138//1 123//1 127//1
f 138//1 137//1 123//1
f 139//6 141//6 140//6
f 141//6 143//6 142//6
f 141//6 144//6 143//6
f 139//6 144//6 141//6
f 139//6 145//6 144//6
f 139//6 146//6 145//6
f 125//2 123//2 139//2 140//2
f 137//4 135//4 145//4 146//4
f 147//6 149//6 148//6
f 147//6 150//6 149//6
f 151//6 153//6 152//6
f 151//6 154//6 153//6
f 156//1 147//1 155//1
f 156//1 154//1 147//1
f 107//12 113//12 150//12 147//12
f 117//16 115//16 151//16 152//16
f 109//17 107//17 147//17 148//17
f 121//17 116//17 153//17 154//17
f 113//16 108//16 149//16 150//16
f 121//11 107//11 147//11 154//11
o K02_A0_1
v -154.840683 0.234831 -32.542061
v -154.840683 -0.765178 -15.044123
v -154.840683 -0.765178 -32.542061
v -154.840683 1.234835 -32.542061
v -154.840683 -0.765178 -14.042154
v -154.840683 -0.765178 -12.042261
v -154.840683 -0.765178 -11.042261
v -154.840683 -0.765178 -9.792079
v -154.840683 3.773588 -9.792048
v -154.840683 3.773581 -32.542080
v -168.182938 3.773588 -9.792048
v -167.532913 9.273592 -32.542080
v -168.182938 3.773581 -32.542080
v -167.532913 10.093981 -10.022303
v -167.185501 3.773585 -31.542063
v -166.638870 9.058230 -10.985239
v -167.185501 3.773590 -10.789408
v -166.634995 8.309347 -31.542063
v -155.490646 9.273592 -32.542080
v -155.490646 10.093981 -10.022303
v -156.384750 9.058230 -10.985239
v -156.388657 8.309347 -31.542063
v -155.838120 3.773590 -10.789392
v -155.838120 3.773585 -31.542063
v -168.182938 2.235438 -32.542080
v -168.182938 2.953846 -9.792079
v -167.182938 2.953846 -9.792079
v -167.182938 2.270405 -31.542063
v -167.182938 2.919070 -10.849604
v -159.686859 2.919070 -10.849604
v -159.686859 2.953854 -9.792063
v -161.011810 1.269404 -31.543299
v -161.011810 1.979500 -10.849604
v -158.361786 3.269406 -31.543283
v -158.361786 3.920573 -10.849604
v -155.840683 0.234827 -32.542061
v -155.840683 -0.765178 -32.542061
v -161.011810 2.270403 -31.542063
v -161.011810 2.235438 -32.542080
v -161.011810 2.015789 -9.792063
v -155.840683 0.819500 -14.042154
v -155.840683 -0.765178 -12.042261
v -155.840683 0.882706 -12.042261
v -155.840683 -0.765178 -14.042154
v -161.011810 0.914309 -11.042261
v -158.426224 0.953821 -9.792079
v -161.011810 0.953821 -9.792079
v -158.426224 0.914309 -11.042261
v -161.011810 -0.765175 -12.042261
v -161.011810 0.882706 -12.042261
v -158.426224 -0.765173 -20.042154
v -158.426224 0.787834 -15.044123
v -158.426224 0.629877 -20.042154
v -158.426224 -0.765175 -15.044123
v -161.011810 0.819500 -14.042154
v -161.011810 -0.765178 -14.042154
v -157.426224 0.914303 -11.042261
v -155.840683 -0.765178 -11.042261
v -155.840683 0.914303 -11.042261
v -157.426224 -0.765178 -11.042261
v -161.011810 -0.765175 -15.044123
v -157.426224 -0.765173 -20.042154
v -157.426224 -0.765175 -15.044123
v -155.840683 -0.765176 -15.044123
v -161.011810 0.787834 -15.044123
v -158.426224 -0.765178 -11.042261
v -158.426224 -0.765173 -9.792079
v -161.011810 -0.765178 -11.042261
v -157.426224 0.629877 -20.042154
v -161.011810 1.234835 -32.542061
v -161.011810 0.234827 -32.542061
v -155.840683 -0.765176 -9.792079
v -155.840683 0.953818 -9.792079
v -157.426224 0.953821 -9.792079
v -157.426224 -0.765173 -9.792079
v -157.426224 0.914307 -15.044123
v -155.840683 0.914305 -15.044123
v -161.011810 1.234835 -37.610863
v -154.840683 1.234835 -37.610878
v -154.840683 0.234831 -37.610863
v -155.840683 0.234827 -37.610863
v -161.011810 0.234827 -37.610863
v -161.590286 -5.815354 -8.231434
v -151.190262 -5.815354 -9.233401
v -161.590286 -5.815354 -9.233401
v -151.190262 -5.915354 -9.233401
v -161.590286 -5.915354 -8.231434
v -161.590286 -5.915354 -9.233401
v -151.190262 -5.815354 -8.231434
v -151.190262 -5.915354 -8.231434
v -155.890259 -5.815354 -8.231434
v -156.890259 -5.815354 -5.733256
v -155.890259 -5.815354 -5.733256
v -156.890259 -5.915354 -5.733256
v -155.890259 -5.915354 -8.231434
v -155.890259 -5.915354 -5.733256
v -156.890259 -5.815354 -8.231434
v -156.890259 -5.915354 -8.231434
v -161.590286 -5.815354 -11.233294
v -156.890259 -5.815354 -12.233311
v -161.590286 -5.815354 -12.233294
v -156.890259 -5.915354 -12.233311
v -161.590286 -5.915354 -11.233294
v -161.590286 -5.915354 -12.233294
v -155.890259 -5.815354 -14.733302
v -156.890259 -5.815354 -14.733302
v -155.890259 -5.915354 -14.733302
v -156.890259 -5.915354 -14.733302
v -155.890259 -5.815354 -12.233311
v -155.890259 -5.915354 -12.233311
v -151.190262 -5.815354 -12.233294
v -151.190262 -5.915354 -12.233294
v -151.190262 -5.815354 -11.233294
v -151.190262 -5.915354 -11.233294
v -161.011810 -0.765173 -11.042261
v -161.011810 -0.765173 -12.044229
v -154.840683 -0.765173 -12.044229
v -154.840683 -0.765173 -11.042261
v -157.426224 -0.765173 -11.042261
v -157.426224 -0.765173 -9.792079
v -158.426224 -0.765173 -9.792079
v -158.426224 -0.765173 -11.042261
v -161.011810 -0.765173 -14.044122
v -161.011810 -0.765173 -15.044123
v -158.426224 -0.765173 -15.044138
v -158.426224 -0.765173 -17.544130
v -157.426224 -0.765173 -17.544130
v -157.426224 -0.765173 -15.044138
v -154.840683 -0.765173 -15.044123
v -154.840683 -0.765173 -14.044122
vn 1.0000 -0.0000 -0.0000
vn -0.9931 0.1174 -0.0000
vn -0.9948 0.1022 -0.0037
vn 0.9947 -0.1029 -0.0000
vn 0.9927 -0.1205 0.0046
vn -0.0000 0.9993 -0.0364
vn -0.0000 -0.9993 0.0364
vn -0.0000 0.0364 0.9993
vn -0.0000 -0.0370 -0.9993
vn 0.9931 0.1174 -0.0000
vn 0.9948 0.1022 -0.0037
vn -0.9927 -0.1205 0.0046
vn -0.9947 -0.1029 -0.0000
vn -1.0000 -0.0000 -0.0000
vn -0.0000 -0.0000 -1.0000
vn -0.0000 -0.0000 1.0000
vn -0.0000 -0.9995 0.0316
vn 0.0035 -0.9995 0.0314
vn -0.0000 -0.9995 0.0329
vn -0.5782 0.8154 -0.0280
vn -0.6022 0.7979 -0.0251
vn -0.6028 0.7975 -0.0251
vn 0.0009 -0.0012 1.0000
vn -0.0000 0.0012 1.0000
vn 0.0010 -0.0072 1.0000
vn -0.0000 -0.9994 0.0349
vn -0.5776 0.8159 -0.0268
vn 1.0000 0.0017 -0.0001
vn 1.0000 0.0030 -0.0000
vn 0.0589 0.9978 -0.0314
vn -0.1959 0.9806 -0.0000
vn -0.0080 0.0702 -0.9975
vn -0.0000 0.3791 0.9254
vn -0.0000 -1.0000 -0.0000
vn 0.0568 -0.9976 0.0387
vn -0.0000 -0.9984 0.0568
vn -0.0000 1.0000 -0.0000
vn -0.0000 0.0001 -1.0000
vn -0.9567 -0.2910 -0.0000
vn 0.9567 0.2910 -0.0000
vn -0.0000 -0.4863 -0.8738
vn -0.9935 0.1138 -0.0000
vn 0.8104 0.5858 -0.0000
vn -0.0000 0.6265 0.7795
vn -0.0000 0.4863 0.8738
s 0
usemtl Xenachord_black
f 157//18 158//18 159//18
f 160//18 158//18 157//18
f 160//18 161//18 158//18
f 160//18 162//18 161//18
f 160//18 163//18 162//18
f 160//18 164//18 163//18
f 160//18 165//18 164//18
f 160//18 166//18 165//18
f 167//19 168//19 169//19
f 170//20 168//20 167//20
f 171//21 172//21 173//21
f 171//22 174//22 172//22
f 170//23 175//23 168//23
f 170//23 176//23 175//23
f 174//24 177//24 172//24
f 178//24 177//24 174//24
f 176//25 167//25 165//25
f 176//25 170//25 167//25
f 179//26 172//26 177//26
f 173//26 172//26 179//26
f 175//27 165//27 166//27
f 175//28 176//28 165//28
f 180//29 177//29 178//29
f 179//30 177//30 180//30
f 181//31 167//31 169//31
f 182//31 167//31 181//31
f 166//32 168//32 175//32
f 169//32 168//32 166//32
f 178//33 171//33 180//33
f 178//33 174//33 171//33
f 181//34 183//34 182//34
f 184//35 183//35 181//35
f 185//31 183//31 184//31
f 186//36 183//36 185//36
f 187//36 183//36 186//36
f 186//37 188//37 189//37
f 186//38 190//38 188//38
f 186//39 191//39 190//39
f 159//32 192//32 157//32
f 193//32 192//32 159//32
f 190//40 194//40 188//40
f 190//41 184//41 194//41
f 180//42 184//42 190//42
f 180//33 171//33 184//33
f 195//43 184//43 181//43
f 194//43 184//43 195//43
f 196//37 186//37 189//37
f 196//44 187//44 186//44
f 171//45 185//45 184//45
f 171//46 173//46 185//46
f 179//47 190//47 191//47
f 179//48 180//48 190//48
f 185//32 191//32 186//32
f 173//49 191//49 185//49
f 191//50 173//50 179//50
f 197//31 198//31 199//31
f 200//31 198//31 197//31
f 201//34 202//34 203//34
f 204//34 202//34 201//34
f 205//32 199//32 198//32
f 206//32 199//32 205//32
f 207//31 208//31 209//31
f 210//31 208//31 207//31
f 162//51 200//51 161//51
f 198//51 200//51 162//51
f 200//33 211//33 212//33
f 200//33 197//33 211//33
f 211//34 199//34 206//34
f 197//34 199//34 211//34
f 213//33 214//33 215//33
f 213//33 216//33 214//33
f 217//51 200//51 212//51
f 210//51 200//51 217//51
f 218//51 210//51 207//51
f 219//51 210//51 218//51
f 219//51 200//51 210//51
f 220//51 200//51 219//51
f 158//51 200//51 220//51
f 161//51 200//51 158//51
f 210//32 221//32 208//32
f 217//32 221//32 210//32
f 222//31 202//31 204//31
f 223//31 202//31 222//31
f 222//33 201//33 224//33
f 222//33 204//33 201//33
f 207//32 225//32 218//32
f 209//32 225//32 207//32
f 195//31 188//31 194//31
f 226//31 188//31 195//31
f 227//31 188//31 226//31
f 221//31 188//31 227//31
f 212//31 221//31 217//31
f 211//31 221//31 212//31
f 211//31 188//31 221//31
f 206//31 188//31 211//31
f 224//31 206//31 205//31
f 201//31 206//31 224//31
f 201//31 188//31 206//31
f 203//31 188//31 201//31
f 196//31 188//31 203//31
f 189//31 188//31 196//31
f 165//33 228//33 164//33
f 165//33 229//33 228//33
f 165//33 230//33 229//33
f 230//33 223//33 231//33
f 230//33 202//33 223//33
f 165//33 202//33 230//33
f 165//33 203//33 202//33
f 165//33 196//33 203//33
f 165//33 187//33 196//33
f 165//33 183//33 187//33
f 165//33 182//33 183//33
f 165//33 167//33 182//33
f 228//51 163//51 164//51
f 214//51 163//51 228//51
f 220//51 159//51 158//51
f 193//51 159//51 220//51
f 232//32 220//32 219//32
f 233//32 220//32 232//32
f 230//34 215//34 229//34
f 213//34 215//34 230//34
f 229//31 214//31 228//31
f 215//31 214//31 229//31
f 230//18 216//18 213//18
f 230//18 231//18 216//18
f 232//18 218//18 225//18
f 232//18 219//18 218//18
f 221//34 209//34 208//34
f 227//34 209//34 221//34
f 227//34 225//34 209//34
f 192//34 225//34 227//34
f 233//52 225//52 192//52
f 232//53 225//53 233//53
f 220//31 192//31 193//31
f 233//31 192//31 220//31
f 163//51 198//51 162//51
f 214//51 198//51 163//51
f 216//51 198//51 214//51
f 223//51 216//51 231//51
f 222//51 216//51 223//51
f 222//51 198//51 216//51
f 224//51 198//51 222//51
f 205//51 198//51 224//51
f 234//54 160//54 235//54
f 234//54 226//54 160//54
f 160//32 169//32 166//32
f 195//32 160//32 226//32
f 195//55 169//55 160//55
f 181//32 169//32 195//32
f 236//32 234//32 235//32
f 237//32 234//32 236//32
f 238//32 234//32 237//32
f 237//51 157//51 192//51
f 236//51 157//51 237//51
f 238//51 192//51 227//51
f 237//51 192//51 238//51
f 234//31 227//31 226//31
f 238//31 227//31 234//31
f 235//18 157//18 236//18
f 235//18 160//18 157//18
usemtl Xenachord_feet
f 262//56 256//56 281//56 282//56
f 242//51 243//51 244//51
f 265//57 261//57 283//57 284//57
f 246//51 243//51 242//51
f 249//57 247//57 275//57 276//57
f 250//51 251//51 252//51
f 253//56 248//56 277//56 278//56
f 254//51 251//51 250//51
f 239//54 247//54 245//54
f 251//54 243//54 246//54
f 239//54 253//54 247//54
f 254//54 243//54 251//54
f 243//31 241//31 244//31
f 243//31 239//31 241//31
f 244//32 240//32 242//32
f 244//32 241//32 240//32
f 242//18 245//18 246//18
f 242//18 240//18 245//18
f 246//33 247//33 251//33
f 246//33 245//33 247//33
f 251//18 249//18 252//18
f 251//18 247//18 249//18
f 252//33 248//33 250//33
f 252//33 249//33 248//33
f 250//31 253//31 254//31
f 250//31 248//31 253//31
f 254//33 239//33 243//33
f 254//33 253//33 239//33
f 240//58 241//58 272//58 273//58
f 258//51 259//51 260//51
f 267//58 265//58 284//58 285//58
f 263//51 258//51 264//51
f 247//58 253//58 278//58 275//58
f 266//51 258//51 263//51
f 241//59 239//59 271//59 272//59
f 266//51 259//51 258//51
f 256//58 257//58 280//58 281//58
f 268//51 259//51 266//51
f 245//60 240//60 273//60 274//60
f 270//51 259//51 268//51
f 259//31 257//31 260//31
f 259//31 255//31 257//31
f 260//32 256//32 258//32
f 260//32 257//32 256//32
f 258//31 262//31 264//31
f 258//31 256//31 262//31
f 264//32 261//32 263//32
f 264//32 262//32 261//32
f 263//18 265//18 266//18
f 263//18 261//18 265//18
f 266//32 267//32 268//32
f 266//32 265//32 267//32
f 268//18 269//18 270//18
f 268//18 267//18 269//18
f 270//33 255//33 259//33
f 270//33 269//33 255//33
f 271//54 273//54 272//54
f 271//54 274//54 273//54
f 275//54 277//54 276//54
f 275//54 278//54 277//54
f 279//54 281//54 280//54
f 281//54 283//54 282//54
f 281//54 284//54 283//54
f 279//54 284//54 281//54
f 279//54 285//54 284//54
f 279//54 286//54 285//54
f 248//61 249//61 276//61 277//61
f 255//62 269//62 286//62 279//62
f 257//59 255//59 279//59 280//59
f 261//58 262//58 282//58 283//58
f 269//60 267//60 285//60 286//60
f 239//62 245//62 274//62 271//62
o K01_A0_2
v -154.840683 -0.765176 14.957952
v -162.005722 -0.765176 13.957937
v -155.840683 -0.765176 13.957937
v -163.005753 -0.765176 13.957937
v -167.182892 -0.765176 13.957937
v -168.182938 -0.765176 14.957952
v -168.182938 1.016901 -7.792062
v -168.182938 3.773588 14.957952
v -168.182938 3.773577 -7.792062
v -168.182938 -0.765169 -32.542095
v -168.182938 0.236327 -32.542095
v -168.182938 -0.765180 -11.233286
v -168.182938 -0.765176 -10.145060
v -168.182938 -0.765176 -8.242838
v -168.182938 -0.765176 -7.196330
v -167.182892 -0.765176 -7.196330
v -155.840683 -0.765180 -7.792062
v -154.840683 -0.765180 -7.792062
v -154.840683 3.773588 14.957952
v -155.828476 3.479883 13.957937
v -162.011856 1.703753 13.957937
v -167.195099 3.479883 13.957937
v -164.667862 3.703753 13.957937
v -167.524338 10.095606 -7.977685
v -167.532883 10.773596 10.457937
v -167.184250 3.739638 -6.791452
v -166.626755 9.753310 9.925023
v -166.615402 9.132750 -6.948985
v -155.490707 10.095606 -7.977685
v -155.490707 10.773596 10.457937
v -156.397324 9.753310 9.925023
v -156.400375 9.132750 -6.948985
v -154.840683 3.773577 -7.792062
v -155.839462 3.739916 -6.791452
v -155.840683 3.098288 -6.792062
v -155.840683 3.098292 -7.792062
v -162.005722 3.098292 -6.792062
v -164.661819 3.098292 -6.792062
v -162.005722 1.048437 -6.793375
v -164.661819 3.048441 -6.792062
v -162.005722 3.098292 -7.791438
v -162.005722 1.016901 -7.792062
v -162.005722 -0.765157 -32.542095
v -162.005722 0.236327 -32.542095
v -162.005722 -0.765165 -11.235270
v -162.005722 -0.765165 -10.145060
v -162.005722 -0.765165 -8.242838
v -162.005722 -0.765169 -7.196330
v -167.182892 0.035227 -7.196330
v -165.594315 -0.765161 -7.196330
v -165.594315 0.035227 -7.196330
v -167.182892 0.703249 13.957937
v -163.005753 0.703249 13.957937
v -167.182892 -0.765176 -11.233286
v -167.182892 -0.765157 -32.542095
v -167.182892 -0.093847 -11.235239
v -167.182892 -0.765176 -10.145060
v -167.182892 -0.118101 -8.242838
v -167.182892 -0.765176 -8.242838
v -167.182892 -0.178171 -10.145060
v -163.005753 -0.765165 -10.145060
v -163.005753 -0.765165 -8.242838
v -163.005753 -0.178167 -10.145060
v -163.005753 -0.118097 -8.242838
v -163.005753 -0.075048 -11.235270
v -163.005753 -0.765157 -32.542095
v -163.005753 -0.765165 -11.235270
v -164.594315 0.035227 -7.196330
v -163.005753 -0.765169 -7.196330
v -163.005753 0.035227 -7.196330
v -164.594315 -0.765161 -7.196330
v -165.594315 -0.765157 -16.233286
v -164.594315 -0.241392 -16.233286
v -164.594315 -0.765157 -16.233286
v -165.594315 -0.246946 -16.233286
v -164.594315 -0.081670 -11.235270
v -165.594315 -0.087225 -11.235270
v -165.594315 0.191950 -2.233377
v -165.594315 -0.765180 -2.233377
v -165.594315 -0.765180 -11.235270
v -164.594315 -0.765180 -2.233377
v -164.594315 0.191950 -2.233377
v -164.594315 -0.765180 -11.235270
v -168.182938 -0.765192 -37.610863
v -167.182892 -0.765180 -37.610863
v -162.005722 0.236304 -37.610863
v -162.005722 -0.765180 -37.610863
v -163.005753 -0.765180 -37.610863
v -168.182938 0.236304 -37.610878
vn -0.0000 -1.0000 -0.0000
vn -1.0000 -0.0000 -0.0000
vn -0.0000 -0.0000 1.0000
vn -0.0000 -0.0000 -1.0000
vn -0.9946 0.1036 -0.0000
vn -0.9959 0.0901 -0.0038
vn 0.9959 -0.0906 -0.0006
vn 0.9945 -0.1048 0.0045
vn -0.0000 0.9993 -0.0368
vn -0.0000 -0.9993 0.0368
vn -0.0000 0.5408 0.8412
vn -0.0000 -0.5408 -0.8412
vn -0.0000 -0.0293 -0.9996
vn -0.0000 0.0292 0.9996
vn 0.9948 0.1023 -0.0000
vn 0.9959 0.0903 -0.0033
vn -0.9946 -0.1033 0.0040
vn -0.9959 -0.0907 -0.0006
vn 1.0000 -0.0000 -0.0000
vn -1.0000 0.0019 0.0006
vn -1.0000 -0.0002 0.0006
vn -1.0000 0.0029 -0.0000
vn -0.0000 -0.0009 1.0000
vn -0.0000 -0.0010 1.0000
vn 0.0005 -0.0000 1.0000
vn -0.0000 -0.0006 1.0000
vn -0.0001 -0.0019 -1.0000
vn 0.0001 0.0003 -1.0000
vn 1.0000 0.0025 -0.0000
vn 1.0000 -0.0001 0.0003
vn 0.6013 0.7986 -0.0250
vn -0.0000 0.9995 -0.0315
vn -0.0882 0.9956 -0.0315
vn 0.2643 0.9644 0.0122
vn 0.0002 -0.0000 1.0000
vn -0.0000 -0.9995 0.0316
vn -0.0000 -0.9995 0.0315
vn 0.0042 -0.9995 0.0324
vn -0.0016 -0.9995 0.0319
vn 0.0056 -0.9995 0.0326
vn 0.0072 -0.9994 0.0329
vn 0.0042 -0.9995 0.0319
vn -0.0000 -0.0029 -1.0000
vn -0.0012 -0.0000 -1.0000
vn -0.0000 -1.0000 0.0020
vn -0.0000 1.0000 -0.0000
s 0
usemtl Xenachord_gray
f 287//63 288//63 289//63
f 287//63 290//63 288//63
f 287//63 291//63 290//63
f 292//63 291//63 287//63
f 293//64 294//64 295//64
f 296//64 293//64 297//64
f 298//64 293//64 296//64
f 298//64 294//64 293//64
f 299//64 294//64 298//64
f 300//64 294//64 299//64
f 301//64 294//64 300//64
f 292//64 294//64 301//64
f 292//63 302//63 291//63
f 301//63 302//63 292//63
f 287//63 303//63 304//63
f 289//63 303//63 287//63
f 287//65 294//65 292//65
f 287//65 305//65 294//65
f 288//66 306//66 289//66
f 307//66 306//66 288//66
f 307//66 308//66 306//66
f 309//65 308//65 307//65
f 294//67 310//67 295//67
f 311//68 310//68 294//68
f 312//69 313//69 308//69
f 312//70 314//70 313//70
f 311//71 315//71 310//71
f 311//71 316//71 315//71
f 314//72 317//72 313//72
f 318//72 317//72 314//72
f 316//73 294//73 305//73
f 316//73 311//73 294//73
f 306//74 313//74 317//74
f 308//74 313//74 306//74
f 295//75 315//75 319//75
f 310//75 315//75 295//75
f 320//76 314//76 312//76
f 320//76 318//76 314//76
f 315//77 305//77 319//77
f 315//78 316//78 305//78
f 320//79 317//79 318//79
f 306//80 317//80 320//80
f 287//81 319//81 305//81
f 287//81 304//81 319//81
f 321//82 306//82 320//82
f 303//64 321//64 322//64
f 303//83 306//83 321//83
f 289//84 306//84 303//84
f 320//85 323//85 321//85
f 320//85 324//85 323//85
f 320//86 312//86 324//86
f 325//87 324//87 326//87
f 325//88 323//88 324//88
f 303//66 319//66 304//66
f 322//66 319//66 303//66
f 322//66 295//66 319//66
f 327//89 295//89 322//89
f 328//90 295//90 327//90
f 293//66 295//66 328//66
f 328//81 329//81 330//81
f 328//81 331//81 329//81
f 328//81 332//81 331//81
f 328//81 333//81 332//81
f 328//81 334//81 333//81
f 327//81 334//81 328//81
f 334//91 307//91 288//91
f 334//92 325//92 307//92
f 327//81 325//81 334//81
f 327//81 323//81 325//81
f 325//93 309//93 307//93
f 325//93 326//93 309//93
f 335//65 336//65 337//65
f 335//65 302//65 336//65
f 338//66 290//66 291//66
f 339//66 290//66 338//66
f 297//94 328//94 330//94
f 297//94 293//94 328//94
f 326//95 308//95 309//95
f 326//96 312//96 308//96
f 324//97 312//97 326//97
f 327//63 321//63 323//63
f 322//63 321//63 327//63
f 340//81 341//81 342//81
f 343//81 344//81 345//81
f 343//81 346//81 344//81
f 347//63 333//63 348//63
f 332//63 333//63 347//63
f 349//98 344//98 346//98
f 350//98 344//98 349//98
f 298//63 341//63 340//63
f 296//63 341//63 298//63
f 300//63 343//63 345//63
f 299//63 343//63 300//63
f 349//64 348//64 350//64
f 347//64 348//64 349//64
f 351//64 352//64 353//64
f 354//65 355//65 356//65
f 354//65 357//65 355//65
f 358//66 359//66 360//66
f 361//66 359//66 358//66
f 348//66 344//66 350//66
f 345//66 344//66 348//66
f 329//63 353//63 352//63
f 331//63 353//63 329//63
f 347//65 346//65 343//65
f 347//65 349//65 346//65
f 352//99 342//99 341//99
f 362//100 352//100 351//100
f 359//101 352//101 362//101
f 361//102 352//102 359//102
f 361//103 342//103 352//103
f 363//104 342//104 361//104
f 302//81 338//81 291//81
f 302//81 335//81 338//81
f 334//63 290//63 355//63
f 288//63 290//63 334//63
f 336//64 364//64 337//64
f 365//64 364//64 336//64
f 358//64 363//64 361//64
f 366//64 363//64 358//64
f 365//63 357//63 367//63
f 336//63 357//63 365//63
f 300//63 302//63 301//63
f 300//63 336//63 302//63
f 300//63 357//63 336//63
f 345//63 357//63 300//63
f 348//63 357//63 345//63
f 333//63 357//63 348//63
f 334//63 357//63 333//63
f 355//66 357//66 334//66
f 365//65 368//65 364//65
f 365//65 367//65 368//65
f 362//81 360//81 359//81
f 362//81 369//81 360//81
f 367//81 354//81 368//81
f 367//81 357//81 354//81
f 363//105 340//105 342//105
f 366//106 340//106 363//106
f 369//66 351//66 353//66
f 362//66 351//66 369//66
f 356//64 290//64 339//64
f 355//64 290//64 356//64
f 356//98 368//98 354//98
f 339//98 368//98 356//98
f 338//98 368//98 339//98
f 337//98 338//98 335//98
f 364//98 338//98 337//98
f 364//98 368//98 338//98
f 332//63 353//63 331//63
f 332//63 369//63 353//63
f 347//63 369//63 332//63
f 343//63 369//63 347//63
f 299//63 369//63 343//63
f 340//63 299//63 298//63
f 340//63 369//63 299//63
f 366//107 369//107 340//107
f 366//63 360//63 369//63
f 358//63 360//63 366//63
f 370//63 341//63 296//63
f 371//63 341//63 370//63
f 372//81 329//81 373//81
f 372//81 330//81 329//81
f 374//66 372//66 373//66
f 371//66 372//66 374//66
f 370//66 372//66 371//66
f 375//66 372//66 370//66
f 375//108 330//108 372//108
f 375//108 297//108 330//108
f 371//63 352//63 341//63
f 374//63 352//63 371//63
f 375//64 296//64 297//64
f 370//64 296//64 375//64
f 374//63 329//63 352//63
f 373//63 329//63 374//63
o Foot_A_02
v -172.981277 -5.815354 -8.231434
v -162.581253 -5.815354 -9.233401
v -172.981277 -5.815354 -9.233401
v -162.581253 -5.915354 -9.233401
v -172.981277 -5.915354 -8.231434
v -172.981277 -5.915354 -9.233401
v -162.581253 -5.815354 -8.231434
v -162.581253 -5.915354 -8.231434
v -167.281250 -5.815354 -8.231434
v -168.281250 -5.815354 -5.733256
v -167.281250 -5.815354 -5.733256
v -168.281250 -5.915354 -5.733256
v -167.281250 -5.915354 -8.231434
v -167.281250 -5.915354 -5.733256
v -168.281250 -5.815354 -8.231434
v -168.281250 -5.915354 -8.231434
v -172.981277 -5.815354 -11.233294
v -168.281250 -5.815354 -12.233311
v -172.981277 -5.815354 -12.233294
v -168.281250 -5.915354 -12.233311
v -172.981277 -5.915354 -11.233294
v -172.981277 -5.915354 -12.233294
v -167.281250 -5.815354 -14.733302
v -168.281250 -5.815354 -14.733302
v -167.281250 -5.915354 -14.733302
v -168.281250 -5.915354 -14.733302
v -167.281250 -5.815354 -12.233311
v -167.281250 -5.915354 -12.233311
v -162.581253 -5.815354 -12.233294
v -162.581253 -5.915354 -12.233294
v -162.581253 -5.815354 -11.233294
v -162.581253 -5.915354 -11.233294
v -167.182892 -0.765165 -10.145060
v -167.182892 -0.765165 -11.145060
v -165.594315 -0.765165 -11.145076
v -165.594315 -0.765165 -13.645067
v -164.594315 -0.765165 -13.645067
v -164.594315 -0.765165 -11.145076
v -163.005753 -0.765165 -11.145060
v -163.005753 -0.765165 -10.145060
v -167.182892 -0.765161 -7.196330
v -167.182892 -0.765161 -8.198298
v -163.005753 -0.765161 -8.198298
v -163.005753 -0.765161 -7.196330
v -164.594315 -0.765161 -7.196330
v -164.594315 -0.765161 -4.698152
v -165.594315 -0.765161 -4.698152
v -165.594315 -0.765161 -7.196330
vn -0.6568 0.7541 -0.0000
vn -0.0000 -1.0000 -0.0000
vn -0.0000 0.2008 -0.9796
vn -0.0000 -0.2008 0.9796
vn -0.8828 0.4697 -0.0000
vn -0.0000 1.0000 -0.0000
vn -1.0000 -0.0000 -0.0000
vn -0.0000 -0.0000 -1.0000
vn 1.0000 -0.0000 -0.0000
vn -0.0000 -0.0000 1.0000
vn -0.0000 0.2106 -0.9776
vn 0.9965 0.0838 -0.0000
vn -0.0000 -0.2106 0.9776
vn -0.0000 0.2107 -0.9776
vn 0.8828 -0.4697 -0.0000
s 0
usemtl Xenachord_feet
f 378//109 376//109 416//109 417//109
f 379//110 380//110 381//110
f 377//111 378//111 417//111 418//111
f 383//110 380//110 379//110
f 376//112 382//112 419//112 416//112
f 387//110 388//110 389//110
f 390//113 385//113 422//113 423//113
f 391//110 388//110 387//110
f 376//114 384//114 382//114
f 388//114 380//114 383//114
f 376//114 390//114 384//114
f 391//114 380//114 388//114
f 380//115 378//115 381//115
f 380//115 376//115 378//115
f 381//116 377//116 379//116
f 381//116 378//116 377//116
f 379//117 382//117 383//117
f 379//117 377//117 382//117
f 383//118 384//118 388//118
f 383//118 382//118 384//118
f 388//117 386//117 389//117
f 388//117 384//117 386//117
f 389//118 385//118 387//118
f 389//118 386//118 385//118
f 387//115 390//115 391//115
f 387//115 385//115 390//115
f 391//118 376//118 380//118
f 391//118 390//118 376//118
f 404//119 402//119 413//119 414//119
f 395//110 396//110 397//110
f 406//120 404//120 414//120 415//120
f 400//110 395//110 401//110
f 394//109 392//109 408//109 409//109
f 403//110 395//110 400//110
f 392//121 406//121 415//121 408//121
f 403//110 396//110 395//110
f 393//122 394//122 409//122 410//122
f 405//110 396//110 403//110
f 402//123 398//123 412//123 413//123
f 407//110 396//110 405//110
f 396//115 394//115 397//115
f 396//115 392//115 394//115
f 397//116 393//116 395//116
f 397//116 394//116 393//116
f 395//115 399//115 401//115
f 395//115 393//115 399//115
f 401//116 398//116 400//116
f 401//116 399//116 398//116
f 400//117 402//117 403//117
f 400//117 398//117 402//117
f 403//116 404//116 405//116
f 403//116 402//116 404//116
f 405//117 406//117 407//117
f 405//117 404//117 406//117
f 407//118 392//118 396//118
f 407//118 406//118 392//118
f 408//114 410//114 409//114
f 410//114 412//114 411//114
f 410//114 413//114 412//114
f 408//114 413//114 410//114
f 408//114 414//114 413//114
f 408//114 415//114 414//114
f 398//119 399//119 411//119 412//119
f 399//113 393//113 410//113 411//113
f 416//114 418//114 417//114
f 416//114 419//114 418//114
f 420//114 422//114 421//114
f 420//114 423//114 422//114
f 382//120 377//120 418//120 419//120
f 384//111 390//111 423//111 420//111
f 385//112 386//112 421//112 422//112
f 386//123 384//123 420//123 421//123
o Bridge_01
